<?xml version="1.0" encoding="UTF-8" standalone="no"?>
<svg
   width="2598"
   height="2599"
   xml:space="preserve"
   overflow="hidden"
   version="1.1"
   id="svg63"
   xmlns="http://www.w3.org/2000/svg"
   xmlns:svg="http://www.w3.org/2000/svg"><defs
     id="defs62"><clipPath
       id="clip0"><rect
         x="901"
         y="-62"
         width="2598"
         height="2599"
         id="rect1" /></clipPath><linearGradient
       x1="1595.25"
       y1="663.75"
       x2="2804.75"
       y2="1873.25"
       gradientUnits="userSpaceOnUse"
       spreadMethod="reflect"
       id="fill1"><stop
         offset="0"
         stop-color="#85CFC8"
         id="stop1" /><stop
         offset="1"
         stop-color="#47B1A7"
         id="stop62" /></linearGradient></defs><g
     clip-path="url(#clip0)"
     transform="translate(-901,62)"
     id="g63"><circle
       style="fill:#f2f2f2;fill-opacity:1"
       id="path65"
       cx="1300"
       cy="1300"
       r="1300"
       transform="translate(901,-62)" /><path
       d="M 2709.33,1905 H 1690.67 c -35.16,0 -63.67,-28.5 -63.67,-63.65 V 695.65 c 0,-35.152 28.51,-63.65 63.67,-63.65 h 1018.66 c 35.17,0 63.67,28.498 63.67,63.65 v 1145.7 c 0,35.15 -28.5,63.65 -63.67,63.65 z m -764,-954.749 v 127.299 h 509.34 V 950.251 Z m 0,254.599 v 127.3 h 509.34 v -127.3 z m 0,254.6 v 127.3 h 318.34 v -127.3 z"
       fill="url(#fill1)"
       fill-rule="evenodd"
       id="path63"
       style="fill:url(#fill1)" /></g></svg>
